<svg width="169" height="159" viewBox="0 0 169 159" fill="none" xmlns="http://www.w3.org/2000/svg">
<path d="M146.098 32.3465L88.3084 7.75191C86.7293 7.07985 84.9092 7.86705 84.3175 9.47801L67.952 54.0355C67.154 56.2082 64.3004 56.697 62.8247 54.9139L31.3645 16.8982C29.7951 15.0019 26.7359 15.6982 26.1419 18.0869L8.02237 90.9562M113.1 143.645C59.2761 166.492 28.7657 133.005 19.9185 115.777C19.1616 114.303 19.885 112.554 21.4101 111.907L87.6865 83.774L153.963 55.6414C155.488 54.994 157.249 55.6887 157.783 57.257C164.03 75.5887 166.924 120.798 113.1 143.645Z" stroke="black" stroke-width="15" stroke-linecap="round"/>
</svg>
